<svg width="58" height="50" viewBox="0 0 58 50" fill="none" xmlns="http://www.w3.org/2000/svg">
<g clip-path="url(#clip0)">
<path d="M21.189 3.36359L2.13346 22.77C0.38789 24.5586 0.38789 27.4615 2.13346 29.2439L21.189 48.662C22.9492 50.4505 25.7984 50.4415 27.5583 48.662C29.3011 46.8706 29.3011 43.9797 27.5583 42.1882L16.4105 30.8372L52.1715 30.8372C54.7548 30.8372 56.8448 28.6953 56.8448 26.0441C56.8448 23.396 54.7548 21.251 52.1715 21.251L16.3432 21.251L27.5583 9.84002C29.3011 8.05168 29.3011 5.15763 27.5583 3.3693C25.8012 1.57787 22.9522 1.57478 21.189 3.36335V3.36359Z" fill="black"/>
</g>
<defs>
<clipPath id="clip0">
<rect width="58" height="50" fill="white" transform="translate(58 50) rotate(180)"/>
</clipPath>
</defs>
</svg>
